<svg width="84" height="192" viewBox="0 0 84 192" fill="none" xmlns="http://www.w3.org/2000/svg">
<path d="M71.128 105.984C70.7387 105.984 70.3867 105.901 70.072 105.736C69.7573 105.565 69.496 105.32 69.288 105L69.864 104.376C70.0987 104.637 70.3093 104.818 70.496 104.92C70.6827 105.016 70.888 105.064 71.112 105.064C71.3147 105.064 71.496 105.021 71.656 104.936C71.816 104.845 71.944 104.725 72.04 104.576C72.136 104.421 72.184 104.253 72.184 104.072C72.184 103.874 72.1387 103.701 72.048 103.552C71.9573 103.397 71.8347 103.274 71.68 103.184C71.5253 103.093 71.3493 103.048 71.152 103.048C71.0453 103.048 70.944 103.056 70.848 103.072C70.752 103.088 70.64 103.12 70.512 103.168C70.3893 103.216 70.232 103.29 70.04 103.392L69.544 102.72L69.872 100.312H72.968V101.232H70.456L70.688 100.976L70.424 102.752L70.128 102.544C70.1973 102.48 70.2987 102.418 70.432 102.36C70.5707 102.301 70.72 102.253 70.88 102.216C71.04 102.178 71.1973 102.16 71.352 102.16C71.6987 102.16 72.008 102.24 72.28 102.4C72.552 102.56 72.768 102.781 72.928 103.064C73.088 103.341 73.168 103.661 73.168 104.024C73.168 104.392 73.0773 104.725 72.896 105.024C72.72 105.317 72.4773 105.552 72.168 105.728C71.8587 105.898 71.512 105.984 71.128 105.984ZM74.441 105.928L76.737 100.856L76.929 101.248H74.065V100.312H77.593L77.713 100.896L75.521 105.928H74.441ZM78.3036 106.016C78.1116 106.016 77.9622 105.96 77.8556 105.848C77.7542 105.736 77.7036 105.578 77.7036 105.376C77.7036 105.189 77.7569 105.037 77.8636 104.92C77.9756 104.797 78.1222 104.736 78.3036 104.736C78.4956 104.736 78.6422 104.792 78.7436 104.904C78.8502 105.01 78.9036 105.168 78.9036 105.376C78.9036 105.562 78.8476 105.717 78.7356 105.84C78.6289 105.957 78.4849 106.016 78.3036 106.016ZM81.3858 105.984C80.9965 105.984 80.6445 105.901 80.3298 105.736C80.0151 105.565 79.7538 105.32 79.5458 105L80.1218 104.376C80.3565 104.637 80.5671 104.818 80.7538 104.92C80.9405 105.016 81.1458 105.064 81.3698 105.064C81.5725 105.064 81.7538 105.021 81.9138 104.936C82.0738 104.845 82.2018 104.725 82.2978 104.576C82.3938 104.421 82.4418 104.253 82.4418 104.072C82.4418 103.874 82.3965 103.701 82.3058 103.552C82.2151 103.397 82.0925 103.274 81.9378 103.184C81.7831 103.093 81.6071 103.048 81.4098 103.048C81.3031 103.048 81.2018 103.056 81.1058 103.072C81.0098 103.088 80.8978 103.12 80.7698 103.168C80.6471 103.216 80.4898 103.29 80.2978 103.392L79.8018 102.72L80.1298 100.312H83.2258V101.232H80.7138L80.9458 100.976L80.6818 102.752L80.3858 102.544C80.4551 102.48 80.5565 102.418 80.6898 102.36C80.8285 102.301 80.9778 102.253 81.1378 102.216C81.2978 102.178 81.4551 102.16 81.6098 102.16C81.9565 102.16 82.2658 102.24 82.5378 102.4C82.8098 102.56 83.0258 102.781 83.1858 103.064C83.3458 103.341 83.4258 103.661 83.4258 104.024C83.4258 104.392 83.3351 104.725 83.1538 105.024C82.9778 105.317 82.7351 105.552 82.4258 105.728C82.1165 105.898 81.7698 105.984 81.3858 105.984Z" fill="#80C343"/>
<path d="M54.72 176.536V171.992L55.016 172.376L53.88 172.952L53.648 172.04L55.176 171.248H55.752V176.536H54.72ZM53.784 176.928V175.968H56.712V176.928H53.784ZM59.9877 176.928V172.408L60.3717 172.448L58.4677 174.776L58.3797 174.632H61.9397V175.536H57.8197L57.3877 174.704L60.1717 171.312H60.9877V176.928H59.9877ZM63.2098 177.016C63.0178 177.016 62.8685 176.96 62.7618 176.848C62.6605 176.736 62.6098 176.578 62.6098 176.376C62.6098 176.189 62.6631 176.037 62.7698 175.92C62.8818 175.797 63.0285 175.736 63.2098 175.736C63.4018 175.736 63.5485 175.792 63.6498 175.904C63.7565 176.01 63.8098 176.168 63.8098 176.376C63.8098 176.562 63.7538 176.717 63.6418 176.84C63.5351 176.957 63.3911 177.016 63.2098 177.016ZM66.2761 177.008C65.8601 177.008 65.4974 176.917 65.1881 176.736C64.8787 176.549 64.5934 176.234 64.3321 175.792L65.1161 175.296C65.2387 175.493 65.3641 175.653 65.4921 175.776C65.6254 175.893 65.7587 175.981 65.8921 176.04C66.0307 176.093 66.1774 176.12 66.3321 176.12C66.5081 176.12 66.6681 176.077 66.8121 175.992C66.9614 175.906 67.0787 175.789 67.1641 175.64C67.2547 175.49 67.3001 175.32 67.3001 175.128C67.3001 174.936 67.2627 174.773 67.1881 174.64C67.1187 174.506 67.0147 174.405 66.8761 174.336C66.7427 174.261 66.5801 174.224 66.3881 174.224C66.3027 174.224 66.2121 174.234 66.1161 174.256C66.0201 174.272 65.9187 174.298 65.8121 174.336C65.7054 174.368 65.5881 174.408 65.4601 174.456L65.2041 173.776L66.7961 172.016L67.0361 172.248L64.6761 172.232V171.312H67.9641L68.1561 171.696L66.3161 173.704L66.0761 173.44C66.1187 173.418 66.1881 173.4 66.2841 173.384C66.3854 173.362 66.4734 173.352 66.5481 173.352C66.7827 173.352 67.0067 173.397 67.2201 173.488C67.4334 173.573 67.6174 173.696 67.7721 173.856C67.9321 174.016 68.0574 174.202 68.1481 174.416C68.2387 174.624 68.2841 174.85 68.2841 175.096C68.2841 175.464 68.1934 175.792 68.0121 176.08C67.8361 176.362 67.5961 176.589 67.2921 176.76C66.9881 176.925 66.6494 177.008 66.2761 177.008Z" fill="#80C343"/>
<path d="M36.2248 38.9277C35.0549 40.6348 33.9431 42.3043 32.8874 43.9379C23.4083 58.885 14.3654 75.8877 15.6421 94.3024C16.9353 112.906 30.2923 127.077 35.1472 144.365C35.7206 146.281 36.207 148.19 36.6174 150.177C36.2725 148.178 35.8471 146.251 35.33 144.314C30.9439 126.781 17.8363 112.334 16.6391 94.2254C15.3714 76.2456 24.0187 59.2653 33.0485 44.0385C34.0525 42.3747 35.1105 40.6716 36.2248 38.9277Z" fill="#4A4A4A"/>
<path d="M36.1376 38.9277C36.1376 38.9277 36.1376 38.9277 36.1376 38.9277C35.7562 40.9839 35.7387 43.0947 35.9924 45.1678C39.608 63.9763 54.4409 77.9717 58.9777 96.2216C64.6649 114.622 54.3678 133.428 40.7703 145.942C39.3222 147.339 37.7794 148.75 36.1376 150.177C36.1376 150.177 36.1376 150.177 36.1376 150.177C37.8224 148.801 39.4085 147.436 40.9002 146.081C54.8533 134.021 65.7769 114.819 59.9448 95.9672C55.27 77.3488 40.2591 63.6367 36.1807 45.1422C35.8699 43.0931 35.8221 40.9951 36.1376 38.9277Z" fill="#4A4A4A"/>
<path d="M36.2762 38.9277C36.2762 38.9277 36.2762 38.9277 36.2762 38.9277C35.165 40.6036 34.1195 42.2448 33.1369 43.8533C24.0154 58.6824 17.3155 76.239 20.5536 93.9075C23.5612 111.415 33.6981 126.519 36.0406 143.996C36.3284 145.931 36.536 147.829 36.6687 149.803C36.6687 149.803 36.6687 149.803 36.6687 149.803C36.6026 147.826 36.458 145.919 36.229 143.971C34.4089 126.346 24.462 110.916 21.5398 93.742C18.3603 76.4135 24.6421 59.0668 33.3006 43.9497C34.2303 42.3129 35.2211 40.6395 36.2762 38.9277Z" fill="#4A4A4A"/>
<path d="M35.8356 39.3027C35.4829 41.3069 35.3086 43.2929 35.2971 45.3107C35.4453 63.9182 47.9008 79.0464 53.5464 95.9707C60.4934 113.07 53.5725 132.337 40.8345 145.129C39.5265 146.546 38.1263 147.978 36.6207 149.432C36.6207 149.432 36.6207 149.432 36.6207 149.432C38.1718 148.026 39.618 146.639 40.9722 145.26C54.1096 132.926 61.6085 113.057 54.4938 95.6507C48.7311 78.4489 36.1742 63.7431 35.4871 45.3089C35.4387 43.302 35.5488 41.3174 35.8356 39.3027Z" fill="#4A4A4A"/>
<path d="M35.8771 39.6787C35.8771 39.6787 35.8771 39.6787 35.8771 39.6787C34.8649 41.3665 33.9294 43.0116 33.0542 44.6402C24.752 59.5896 20.825 77.6295 25.6616 94.3817C30.0047 110.92 39.4933 126.376 37.5073 143.784C37.3255 145.698 37.0524 147.522 36.6623 149.434C36.6623 149.434 36.6623 149.434 36.6623 149.434C37.1175 147.536 37.4539 145.72 37.6962 143.805C40.2504 126.354 30.8921 110.408 26.6297 94.1314C21.877 77.6236 25.412 59.9472 33.223 44.7274C34.0435 43.074 34.9227 41.3998 35.8771 39.6787Z" fill="#4A4A4A"/>
<path d="M35.8602 39.6787C35.8602 39.6787 35.8602 39.6787 35.8602 39.6787C35.3499 41.6172 34.9785 43.4728 34.7138 45.4442C32.0932 63.3844 41.9142 79.7263 47.9752 95.8659C55.1027 112.062 51.8536 131.422 40.3861 144.91C39.2019 146.441 37.9955 147.9 36.6453 149.434C36.6453 149.434 36.6453 149.434 36.6453 149.434C38.0448 147.945 39.3007 146.525 40.5346 145.028C52.4625 131.958 56.1801 111.884 48.914 95.5213C42.7781 79.1827 32.8568 63.3576 34.9025 45.4665C35.1066 43.4961 35.4147 41.6331 35.8602 39.6787Z" fill="#4A4A4A"/>
<path d="M35.8322 40.0439C35.8322 40.0439 35.8322 40.0439 35.8322 40.0439C34.8932 41.76 34.0681 43.3747 33.2614 45.0908C25.5901 60.2819 25.1467 78.6882 30.8089 94.6997C36.0826 110.614 42.6859 127.182 38.4864 143.962C38.0661 145.85 37.6009 147.568 37.0099 149.426C37.0099 149.426 37.0099 149.426 37.0099 149.426C37.6641 147.59 38.1911 145.886 38.6712 144.006C43.4484 127.296 37.0057 110.172 31.7635 94.4018C26.169 78.4897 26.2908 60.6012 33.4346 45.1689C34.1849 43.4319 34.9522 41.791 35.8322 40.0439Z" fill="#4A4A4A"/>
<path d="M35.4606 40.4189C34.7457 42.2468 34.176 43.9596 33.6723 45.8446C28.7321 62.7754 36.5057 79.8182 42.4689 95.408C49.0419 111.038 49.3793 129.601 40.0744 144.229C39.1109 145.888 38.147 147.416 37.0309 149.055C38.2015 147.454 39.2197 145.96 40.2373 144.326C50.0646 130.013 50.0678 110.764 43.4075 95.0631C37.4058 79.3285 29.5028 62.867 33.8567 45.8906C34.3002 43.9984 34.8082 42.27 35.4606 40.4189Z" fill="#4A4A4A"/>
<path d="M35.8621 40.0439C34.8678 41.7369 34.0406 43.3297 33.2487 45.1162C25.7313 61.063 31.0484 79.2357 36.5901 94.9715C42.191 110.744 46.8957 128.597 39.2705 144.37C38.4626 146.152 37.6439 147.726 36.6473 149.426C36.6473 149.426 36.6473 149.426 36.6473 149.426C37.7008 147.761 38.577 146.214 39.4425 144.45C47.6406 128.851 43.1589 110.381 37.5376 94.6518C32.0033 78.8516 26.4852 61.2739 33.4237 45.1903C34.1573 43.3876 34.9259 41.7697 35.8621 40.0439Z" fill="#4A4A4A"/>
<path d="M36.6233 149.928C36.1184 150.517 35.6406 151.099 35.1889 151.674C31.064 156.903 27.7299 163.567 28.6545 170.56C29.4215 177.622 34.4673 182.854 36.9475 189.022C37.1942 189.721 37.3862 190.45 37.4844 191.19C37.4527 190.444 37.3217 189.693 37.1291 188.966C35.0765 182.467 30.331 177.099 29.6468 170.436C28.7661 163.839 31.6535 157.336 35.343 151.785C35.7444 151.178 36.1708 150.558 36.6233 149.928Z" fill="#4A4A4A"/>
<path d="M36.63 149.928C36.4877 150.717 36.6026 151.542 36.8373 152.316C39.6 159.07 45.642 164.001 47.1434 170.985C48.9182 177.989 44.3488 184.745 39.2663 189.553C38.7091 190.091 38.1178 190.637 37.4912 191.19C38.1599 190.689 38.7934 190.19 39.393 189.694C44.8079 185.326 50.0104 178.342 48.119 170.766C46.463 163.323 40.1571 158.611 37.017 152.254C36.7325 151.518 36.5548 150.726 36.63 149.928Z" fill="#4A4A4A"/>
<path d="M36.3443 150.192C35.9071 150.791 35.5034 151.377 35.12 151.97C31.5213 157.345 29.8236 164.262 31.4433 170.706C32.8184 177.164 36.821 182.607 37.4834 189.046C37.5415 189.757 37.5478 190.47 37.4925 191.191C37.614 190.478 37.6718 189.762 37.6732 189.039C37.5322 182.413 33.7156 176.686 32.4186 170.486C30.8758 164.285 32.1687 157.729 35.2838 152.066C35.6137 151.446 35.9627 150.828 36.3443 150.192Z" fill="#4A4A4A"/>
<path d="M36.625 150.192C36.5917 150.946 36.6128 151.693 36.6833 152.443C37.3673 159.305 41.7601 164.997 43.7067 171.281C46.0226 177.622 43.4378 184.501 38.9756 189.512C38.5111 190.065 38.0181 190.621 37.4861 191.191C38.0648 190.669 38.6047 190.156 39.1159 189.641C43.9788 185.065 47.1311 177.668 44.6623 170.986C42.5999 164.41 38.0728 159.086 36.8716 152.418C36.7427 151.683 36.6584 150.946 36.625 150.192Z" fill="#4A4A4A"/>
<path d="M36.6235 150.192C36.2194 150.807 35.8689 151.38 35.5175 152.015C32.1921 157.565 32.2905 164.706 34.4004 170.707C36.3438 176.752 38.9509 182.718 38.1162 189.097C38.0323 189.809 37.9225 190.481 37.7717 191.191C37.7717 191.191 37.7717 191.191 37.7717 191.191C37.987 190.498 38.1596 189.836 38.3038 189.127C39.7077 182.758 37.2681 176.333 35.3549 170.409C33.306 164.471 32.8962 157.898 35.6875 152.1C35.9829 151.442 36.2767 150.841 36.6235 150.192Z" fill="#4A4A4A"/>
<path d="M36.6245 150.192C36.3326 150.857 36.1146 151.537 35.9648 152.245C34.7881 158.876 38.6016 164.896 40.5541 170.854C42.8257 176.753 43.023 183.684 39.075 188.949C38.661 189.545 38.2511 190.086 37.7727 190.662C38.3005 190.131 38.7608 189.629 39.2266 189.063C43.6875 184.142 43.8661 176.512 41.4988 170.526C39.4822 164.401 35.5408 158.785 36.1521 152.276C36.2407 151.571 36.3948 150.881 36.6245 150.192Z" fill="#4A4A4A"/>
<path d="M36.3319 150.456C36.3319 150.456 36.3319 150.456 36.3319 150.456C36.0534 151.13 35.8213 151.749 35.5997 152.436C33.4082 158.496 35.0631 165.259 37.5091 170.959C40.0027 176.673 41.1188 183.096 38.5925 188.99C38.3347 189.656 38.0776 190.262 37.7673 190.925C38.1366 190.293 38.4518 189.713 38.7668 189.065C41.85 183.406 40.9814 176.301 38.4411 170.597C36.0054 164.843 34.1644 158.676 35.7828 152.486C35.9452 151.789 36.1161 151.152 36.3319 150.456Z" fill="#4A4A4A"/>
<circle cx="34.5" cy="38.4277" r="18" stroke="#4A4A4A"/>
<path d="M27.1848 36.5357V31.9917L27.4808 32.3757L26.3448 32.9517L26.1128 32.0397L27.6408 31.2477H28.2168V36.5357H27.1848ZM26.2488 36.9277V35.9677H29.1768V36.9277H26.2488ZM31.7565 37.0077C31.3405 37.0077 30.9779 36.9171 30.6685 36.7357C30.3592 36.5491 30.0739 36.2344 29.8125 35.7917L30.5965 35.2957C30.7192 35.4931 30.8445 35.6531 30.9725 35.7757C31.1059 35.8931 31.2392 35.9811 31.3725 36.0397C31.5112 36.0931 31.6579 36.1197 31.8125 36.1197C31.9885 36.1197 32.1485 36.0771 32.2925 35.9917C32.4419 35.9064 32.5592 35.7891 32.6445 35.6397C32.7352 35.4904 32.7805 35.3197 32.7805 35.1277C32.7805 34.9357 32.7432 34.7731 32.6685 34.6397C32.5992 34.5064 32.4952 34.4051 32.3565 34.3357C32.2232 34.2611 32.0605 34.2237 31.8685 34.2237C31.7832 34.2237 31.6925 34.2344 31.5965 34.2557C31.5005 34.2717 31.3992 34.2984 31.2925 34.3357C31.1859 34.3677 31.0685 34.4077 30.9405 34.4557L30.6845 33.7757L32.2765 32.0157L32.5165 32.2477L30.1565 32.2317V31.3117H33.4445L33.6365 31.6957L31.7965 33.7037L31.5565 33.4397C31.5992 33.4184 31.6685 33.3997 31.7645 33.3837C31.8659 33.3624 31.9539 33.3517 32.0285 33.3517C32.2632 33.3517 32.4872 33.3971 32.7005 33.4877C32.9139 33.5731 33.0979 33.6957 33.2525 33.8557C33.4125 34.0157 33.5379 34.2024 33.6285 34.4157C33.7192 34.6237 33.7645 34.8504 33.7645 35.0957C33.7645 35.4637 33.6739 35.7917 33.4925 36.0797C33.3165 36.3624 33.0765 36.5891 32.7725 36.7597C32.4685 36.9251 32.1299 37.0077 31.7565 37.0077ZM36.8588 36.9277V32.4077L37.2428 32.4477L35.3388 34.7757L35.2508 34.6317H38.8108V35.5357H34.6908L34.2588 34.7037L37.0428 31.3117H37.8588V36.9277H36.8588ZM41.2409 37.0077C40.8249 37.0077 40.4622 36.9171 40.1529 36.7357C39.8436 36.5491 39.5582 36.2344 39.2969 35.7917L40.0809 35.2957C40.2036 35.4931 40.3289 35.6531 40.4569 35.7757C40.5902 35.8931 40.7236 35.9811 40.8569 36.0397C40.9956 36.0931 41.1422 36.1197 41.2969 36.1197C41.4729 36.1197 41.6329 36.0771 41.7769 35.9917C41.9262 35.9064 42.0436 35.7891 42.1289 35.6397C42.2196 35.4904 42.2649 35.3197 42.2649 35.1277C42.2649 34.9357 42.2276 34.7731 42.1529 34.6397C42.0836 34.5064 41.9796 34.4051 41.8409 34.3357C41.7076 34.2611 41.5449 34.2237 41.3529 34.2237C41.2676 34.2237 41.1769 34.2344 41.0809 34.2557C40.9849 34.2717 40.8836 34.2984 40.7769 34.3357C40.6702 34.3677 40.5529 34.4077 40.4249 34.4557L40.1689 33.7757L41.7609 32.0157L42.0009 32.2477L39.6409 32.2317V31.3117H42.9289L43.1209 31.6957L41.2809 33.7037L41.0409 33.4397C41.0836 33.4184 41.1529 33.3997 41.2489 33.3837C41.3502 33.3624 41.4382 33.3517 41.5129 33.3517C41.7476 33.3517 41.9716 33.3971 42.1849 33.4877C42.3982 33.5731 42.5822 33.6957 42.7369 33.8557C42.8969 34.0157 43.0222 34.2024 43.1129 34.4157C43.2036 34.6237 43.2489 34.8504 43.2489 35.0957C43.2489 35.4637 43.1582 35.7917 42.9769 36.0797C42.8009 36.3624 42.5609 36.5891 42.2569 36.7597C41.9529 36.9251 41.6142 37.0077 41.2409 37.0077Z" fill="#80C343"/>
<path d="M3.13891 8.92773V1.43973H0.738906V0.527734H6.57091V1.43973H4.07491V8.92773H3.13891ZM8.03397 8.92773V2.66373H8.93397V8.92773H8.03397ZM8.47797 1.30773C8.25397 1.30773 8.08197 1.25173 7.96197 1.13973C7.84997 1.01973 7.79397 0.859734 7.79397 0.659734C7.79397 0.459734 7.85397 0.299734 7.97397 0.179734C8.09397 0.0597341 8.26197 -0.000265837 8.47797 -0.000265837C8.69397 -0.000265837 8.86197 0.0597341 8.98197 0.179734C9.10197 0.291734 9.16197 0.451734 9.16197 0.659734C9.16197 0.851734 9.10197 1.00773 8.98197 1.12773C8.86197 1.24773 8.69397 1.30773 8.47797 1.30773ZM10.8874 8.92773V2.66373H11.7874L11.8114 4.09173L11.6314 4.15173C11.6954 3.91173 11.7994 3.69573 11.9434 3.50373C12.0954 3.30373 12.2754 3.13173 12.4834 2.98773C12.6914 2.84373 12.9194 2.73573 13.1674 2.66373C13.4154 2.58373 13.6754 2.54373 13.9474 2.54373C14.2754 2.54373 14.5674 2.59973 14.8234 2.71173C15.0874 2.81573 15.3074 2.99973 15.4834 3.26373C15.6674 3.51973 15.8074 3.85973 15.9034 4.28373L15.6874 4.17573L15.7714 3.97173C15.8514 3.78773 15.9674 3.61173 16.1194 3.44373C16.2794 3.26773 16.4594 3.11173 16.6594 2.97573C16.8674 2.83973 17.0914 2.73573 17.3314 2.66373C17.5794 2.58373 17.8314 2.54373 18.0874 2.54373C18.5274 2.54373 18.8994 2.63973 19.2034 2.83173C19.5074 3.01573 19.7354 3.29973 19.8874 3.68373C20.0474 4.06773 20.1274 4.55573 20.1274 5.14773V8.92773H19.2034V5.19573C19.2034 4.77973 19.1514 4.43973 19.0474 4.17573C18.9434 3.91173 18.7874 3.71573 18.5794 3.58773C18.3794 3.45173 18.1234 3.38373 17.8114 3.38373C17.5394 3.38373 17.2874 3.43173 17.0554 3.52773C16.8314 3.61573 16.6354 3.74373 16.4674 3.91173C16.3074 4.07173 16.1794 4.25573 16.0834 4.46373C15.9954 4.67173 15.9514 4.89573 15.9514 5.13573V8.92773H15.0394V5.18373C15.0394 4.78373 14.9834 4.45173 14.8714 4.18773C14.7674 3.92373 14.6114 3.72373 14.4034 3.58773C14.1954 3.45173 13.9394 3.38373 13.6354 3.38373C13.3714 3.38373 13.1274 3.43173 12.9034 3.52773C12.6794 3.61573 12.4834 3.73973 12.3154 3.89973C12.1554 4.05973 12.0274 4.24373 11.9314 4.45173C11.8434 4.65973 11.7994 4.88373 11.7994 5.12373V8.92773H10.8874ZM24.605 9.04773C23.981 9.04773 23.425 8.90773 22.937 8.62773C22.457 8.34773 22.077 7.95973 21.797 7.46373C21.525 6.96773 21.389 6.40373 21.389 5.77173C21.389 5.14773 21.525 4.59173 21.797 4.10373C22.077 3.61573 22.457 3.23173 22.937 2.95173C23.425 2.67173 23.981 2.53173 24.605 2.53173C25.221 2.53173 25.769 2.67173 26.249 2.95173C26.737 3.23173 27.117 3.61573 27.389 4.10373C27.669 4.59173 27.809 5.14773 27.809 5.77173C27.809 6.40373 27.669 6.96773 27.389 7.46373C27.117 7.95973 26.737 8.34773 26.249 8.62773C25.769 8.90773 25.221 9.04773 24.605 9.04773ZM24.605 8.19573C25.045 8.19573 25.437 8.09173 25.781 7.88373C26.125 7.66773 26.393 7.37973 26.585 7.01973C26.777 6.65173 26.873 6.23573 26.873 5.77173C26.873 5.30773 26.777 4.89573 26.585 4.53573C26.393 4.17573 26.125 3.89573 25.781 3.69573C25.437 3.48773 25.045 3.38373 24.605 3.38373C24.165 3.38373 23.769 3.48773 23.417 3.69573C23.073 3.89573 22.801 4.17973 22.601 4.54773C22.409 4.90773 22.317 5.31573 22.325 5.77173C22.317 6.23573 22.409 6.65173 22.601 7.01973C22.801 7.37973 23.073 7.66773 23.417 7.88373C23.769 8.09173 24.165 8.19573 24.605 8.19573ZM29.1221 8.92773V2.66373H30.0221L30.0461 4.33173L29.9501 4.10373C30.0381 3.82373 30.1781 3.56373 30.3701 3.32373C30.5701 3.08373 30.8061 2.89173 31.0781 2.74773C31.3501 2.60373 31.6501 2.53173 31.9781 2.53173C32.1141 2.53173 32.2421 2.54373 32.3621 2.56773C32.4821 2.58373 32.5821 2.60773 32.6621 2.63973L32.4101 3.64773C32.3061 3.59973 32.1981 3.56773 32.0861 3.55173C31.9821 3.52773 31.8821 3.51573 31.7861 3.51573C31.5141 3.51573 31.2701 3.56373 31.0541 3.65973C30.8381 3.75573 30.6541 3.89173 30.5021 4.06773C30.3501 4.23573 30.2341 4.43173 30.1541 4.65573C30.0741 4.87973 30.0341 5.11973 30.0341 5.37573V8.92773H29.1221ZM33.3947 6.03573V5.13573H36.7787V6.03573H33.3947ZM38.6813 8.92773V0.527734H39.6173V8.01573H43.6493V8.92773H38.6813ZM47.6438 9.04773C47.0198 9.04773 46.4638 8.91173 45.9758 8.63973C45.4958 8.36773 45.1198 7.98773 44.8478 7.49973C44.5758 7.01173 44.4398 6.45173 44.4398 5.81973C44.4398 5.33173 44.5158 4.89173 44.6678 4.49973C44.8198 4.09973 45.0318 3.75173 45.3038 3.45573C45.5838 3.15973 45.9158 2.93173 46.2998 2.77173C46.6838 2.60373 47.0998 2.51973 47.5478 2.51973C47.9718 2.51973 48.3558 2.59573 48.6998 2.74773C49.0518 2.89973 49.3518 3.11173 49.5998 3.38373C49.8558 3.64773 50.0478 3.96373 50.1758 4.33173C50.3038 4.69973 50.3598 5.10373 50.3438 5.54373L50.3318 5.96373H45.1118L44.9798 5.20773H49.6478L49.4318 5.41173V5.12373C49.4158 4.83573 49.3318 4.55973 49.1798 4.29573C49.0278 4.02373 48.8118 3.80373 48.5318 3.63573C48.2598 3.46773 47.9318 3.38373 47.5478 3.38373C47.0998 3.38373 46.7118 3.47573 46.3838 3.65973C46.0558 3.83573 45.8038 4.09973 45.6278 4.45173C45.4518 4.80373 45.3638 5.23973 45.3638 5.75973C45.3638 6.25573 45.4598 6.68773 45.6518 7.05573C45.8438 7.41573 46.1158 7.69573 46.4678 7.89573C46.8278 8.09573 47.2598 8.19573 47.7638 8.19573C48.0598 8.19573 48.3518 8.14773 48.6398 8.05173C48.9358 7.94773 49.2598 7.74773 49.6118 7.45173L50.0798 8.09973C49.8958 8.28373 49.6758 8.44773 49.4198 8.59173C49.1638 8.72773 48.8838 8.83973 48.5798 8.92773C48.2758 9.00773 47.9638 9.04773 47.6438 9.04773ZM53.6741 9.04773C53.1381 9.04773 52.6581 8.94773 52.2341 8.74773C51.8101 8.54773 51.4741 8.28373 51.2261 7.95573L51.8621 7.40373C52.0941 7.68373 52.3661 7.89573 52.6781 8.03973C52.9981 8.18373 53.3541 8.25573 53.7461 8.25573C53.9461 8.25573 54.1261 8.23573 54.2861 8.19573C54.4461 8.14773 54.5861 8.07973 54.7061 7.99173C54.8261 7.90373 54.9181 7.79973 54.9821 7.67973C55.0461 7.55973 55.0781 7.42773 55.0781 7.28373C55.0781 7.01973 54.9621 6.79973 54.7301 6.62373C54.6261 6.55173 54.4781 6.47973 54.2861 6.40773C54.0941 6.32773 53.8621 6.25173 53.5901 6.17973C53.1421 6.05173 52.7701 5.92373 52.4741 5.79573C52.1781 5.65973 51.9461 5.50373 51.7781 5.32773C51.6581 5.18373 51.5661 5.02773 51.5021 4.85973C51.4461 4.69173 51.4181 4.50773 51.4181 4.30773C51.4181 4.05173 51.4701 3.81573 51.5741 3.59973C51.6861 3.38373 51.8381 3.19573 52.0301 3.03573C52.2301 2.86773 52.4621 2.74373 52.7261 2.66373C52.9981 2.57573 53.2901 2.53173 53.6021 2.53173C53.8981 2.53173 54.1901 2.57173 54.4781 2.65173C54.7661 2.73173 55.0341 2.84773 55.2821 2.99973C55.5301 3.15173 55.7421 3.33173 55.9181 3.53973L55.3661 4.13973C55.2141 3.97973 55.0461 3.83573 54.8621 3.70773C54.6781 3.57973 54.4821 3.47973 54.2741 3.40773C54.0741 3.33573 53.8661 3.29973 53.6501 3.29973C53.4581 3.29973 53.2781 3.32373 53.1101 3.37173C52.9501 3.41973 52.8101 3.48773 52.6901 3.57573C52.5781 3.65573 52.4901 3.75573 52.4261 3.87573C52.3701 3.99573 52.3421 4.12773 52.3421 4.27173C52.3421 4.39173 52.3661 4.49973 52.4141 4.59573C52.4621 4.69173 52.5301 4.77573 52.6181 4.84773C52.7301 4.93573 52.8861 5.01973 53.0861 5.09973C53.2941 5.17173 53.5501 5.24773 53.8541 5.32773C54.2061 5.42373 54.5021 5.52373 54.7421 5.62773C54.9901 5.72373 55.1941 5.83973 55.3541 5.97573C55.5701 6.13573 55.7221 6.31973 55.8101 6.52773C55.9061 6.73573 55.9541 6.97173 55.9541 7.23573C55.9541 7.58773 55.8541 7.89973 55.6541 8.17173C55.4621 8.44373 55.1941 8.65973 54.8501 8.81973C54.5061 8.97173 54.1141 9.04773 53.6741 9.04773ZM58.2283 8.92773V1.01973H59.1283V8.92773H58.2283ZM56.8123 3.52773V2.66373H60.7123V3.52773H56.8123ZM64.5188 9.04773C63.8948 9.04773 63.3388 8.91173 62.8508 8.63973C62.3708 8.36773 61.9948 7.98773 61.7228 7.49973C61.4508 7.01173 61.3148 6.45173 61.3148 5.81973C61.3148 5.33173 61.3908 4.89173 61.5428 4.49973C61.6948 4.09973 61.9068 3.75173 62.1788 3.45573C62.4588 3.15973 62.7908 2.93173 63.1748 2.77173C63.5588 2.60373 63.9748 2.51973 64.4228 2.51973C64.8468 2.51973 65.2308 2.59573 65.5748 2.74773C65.9268 2.89973 66.2268 3.11173 66.4748 3.38373C66.7308 3.64773 66.9228 3.96373 67.0508 4.33173C67.1788 4.69973 67.2348 5.10373 67.2188 5.54373L67.2068 5.96373H61.9868L61.8548 5.20773H66.5228L66.3068 5.41173V5.12373C66.2908 4.83573 66.2068 4.55973 66.0548 4.29573C65.9028 4.02373 65.6868 3.80373 65.4068 3.63573C65.1348 3.46773 64.8068 3.38373 64.4228 3.38373C63.9748 3.38373 63.5868 3.47573 63.2588 3.65973C62.9308 3.83573 62.6788 4.09973 62.5028 4.45173C62.3268 4.80373 62.2388 5.23973 62.2388 5.75973C62.2388 6.25573 62.3348 6.68773 62.5268 7.05573C62.7188 7.41573 62.9908 7.69573 63.3428 7.89573C63.7028 8.09573 64.1348 8.19573 64.6388 8.19573C64.9348 8.19573 65.2268 8.14773 65.5148 8.05173C65.8108 7.94773 66.1348 7.74773 66.4868 7.45173L66.9548 8.09973C66.7708 8.28373 66.5508 8.44773 66.2948 8.59173C66.0388 8.72773 65.7588 8.83973 65.4548 8.92773C65.1508 9.00773 64.8388 9.04773 64.5188 9.04773Z" fill="#130091"/>
</svg>
