<svg width="99" height="340" viewBox="0 0 99 340" fill="none" xmlns="http://www.w3.org/2000/svg">
<path d="M85.336 151.952C84.9787 151.952 84.6507 151.88 84.352 151.736C84.0587 151.586 83.824 151.389 83.648 151.144C83.472 150.893 83.384 150.616 83.384 150.312C83.384 150.13 83.408 149.962 83.456 149.808C83.5093 149.653 83.584 149.514 83.68 149.392C83.7813 149.269 83.9013 149.16 84.04 149.064C84.184 148.962 84.3467 148.874 84.528 148.8L84.464 149.024C84.3253 148.965 84.1973 148.896 84.08 148.816C83.968 148.736 83.8693 148.645 83.784 148.544C83.704 148.437 83.6427 148.325 83.6 148.208C83.5573 148.085 83.536 147.957 83.536 147.824C83.536 147.536 83.616 147.277 83.776 147.048C83.9413 146.818 84.16 146.637 84.432 146.504C84.704 146.365 85.0053 146.296 85.336 146.296C85.672 146.296 85.976 146.365 86.248 146.504C86.52 146.637 86.736 146.818 86.896 147.048C87.0613 147.277 87.144 147.536 87.144 147.824C87.144 147.957 87.1227 148.085 87.08 148.208C87.0373 148.325 86.976 148.434 86.896 148.536C86.8213 148.632 86.7253 148.722 86.608 148.808C86.4907 148.888 86.3547 148.96 86.2 149.024L86.16 148.832C86.3307 148.89 86.4853 148.968 86.624 149.064C86.7627 149.16 86.8827 149.272 86.984 149.4C87.0853 149.528 87.1627 149.669 87.216 149.824C87.2747 149.978 87.304 150.141 87.304 150.312C87.304 150.621 87.216 150.901 87.04 151.152C86.864 151.397 86.6267 151.592 86.328 151.736C86.0347 151.88 85.704 151.952 85.336 151.952ZM85.336 151.056C85.5173 151.056 85.68 151.021 85.824 150.952C85.968 150.882 86.08 150.789 86.16 150.672C86.2453 150.554 86.288 150.418 86.288 150.264C86.288 150.098 86.2453 149.954 86.16 149.832C86.08 149.704 85.968 149.605 85.824 149.536C85.68 149.461 85.5173 149.424 85.336 149.424C85.16 149.424 85 149.461 84.856 149.536C84.7173 149.605 84.6053 149.704 84.52 149.832C84.4347 149.954 84.392 150.098 84.392 150.264C84.392 150.413 84.4347 150.546 84.52 150.664C84.6053 150.781 84.7173 150.877 84.856 150.952C85 151.021 85.16 151.056 85.336 151.056ZM85.336 148.544C85.496 148.544 85.6373 148.514 85.76 148.456C85.888 148.397 85.9867 148.317 86.056 148.216C86.1253 148.114 86.16 147.997 86.16 147.864C86.16 147.725 86.1253 147.605 86.056 147.504C85.9867 147.397 85.888 147.314 85.76 147.256C85.6373 147.192 85.496 147.16 85.336 147.16C85.1813 147.16 85.04 147.192 84.912 147.256C84.7893 147.314 84.6933 147.397 84.624 147.504C84.5547 147.605 84.52 147.725 84.52 147.864C84.52 147.997 84.5547 148.114 84.624 148.216C84.6933 148.317 84.7893 148.397 84.912 148.456C85.04 148.514 85.1813 148.544 85.336 148.544ZM89.4075 151.536V146.992L89.7035 147.376L88.5675 147.952L88.3355 147.04L89.8635 146.248H90.4395V151.536H89.4075ZM88.4715 151.928V150.968H91.3995V151.928H88.4715ZM92.8192 152.016C92.6272 152.016 92.4779 151.96 92.3712 151.848C92.2699 151.736 92.2192 151.578 92.2192 151.376C92.2192 151.189 92.2725 151.037 92.3792 150.92C92.4912 150.797 92.6379 150.736 92.8192 150.736C93.0112 150.736 93.1579 150.792 93.2592 150.904C93.3659 151.01 93.4192 151.168 93.4192 151.376C93.4192 151.562 93.3632 151.717 93.2512 151.84C93.1445 151.957 93.0005 152.016 92.8192 152.016ZM94.4214 151.928L94.1574 151.272L95.8374 149.392C95.9334 149.296 96.0321 149.186 96.1334 149.064C96.2348 148.936 96.3308 148.805 96.4214 148.672C96.5174 148.533 96.5948 148.4 96.6534 148.272C96.7121 148.138 96.7414 148.016 96.7414 147.904C96.7414 147.76 96.7094 147.634 96.6454 147.528C96.5868 147.421 96.5014 147.338 96.3894 147.28C96.2774 147.221 96.1388 147.192 95.9734 147.192C95.8294 147.192 95.6881 147.234 95.5494 147.32C95.4161 147.4 95.2908 147.517 95.1734 147.672C95.0614 147.821 94.9681 148 94.8934 148.208L94.1094 147.744C94.2054 147.434 94.3494 147.168 94.5414 146.944C94.7388 146.714 94.9681 146.538 95.2294 146.416C95.4961 146.293 95.7841 146.232 96.0934 146.232C96.4134 146.232 96.6988 146.298 96.9494 146.432C97.2001 146.565 97.3974 146.749 97.5414 146.984C97.6908 147.218 97.7654 147.493 97.7654 147.808C97.7654 147.925 97.7521 148.048 97.7254 148.176C97.6988 148.298 97.6561 148.429 97.5974 148.568C97.5441 148.701 97.4721 148.842 97.3814 148.992C97.2908 149.136 97.1814 149.288 97.0534 149.448C96.9308 149.608 96.7894 149.776 96.6294 149.952L95.3574 151.336L95.1974 150.968H97.9654V151.928H94.4214Z" fill="#80C343"/>
<path d="M80.808 288.928V284.408L81.192 284.448L79.288 286.776L79.2 286.632H82.76V287.536H78.64L78.208 286.704L80.992 283.312H81.808V288.928H80.808ZM83.7379 288.928L86.0339 283.856L86.2259 284.248H83.3619V283.312H86.8899L87.0099 283.896L84.8179 288.928H83.7379ZM87.6004 289.016C87.4084 289.016 87.2591 288.96 87.1524 288.848C87.0511 288.736 87.0004 288.578 87.0004 288.376C87.0004 288.189 87.0538 288.037 87.1604 287.92C87.2724 287.797 87.4191 287.736 87.6004 287.736C87.7924 287.736 87.9391 287.792 88.0404 287.904C88.1471 288.01 88.2004 288.168 88.2004 288.376C88.2004 288.562 88.1444 288.717 88.0324 288.84C87.9258 288.957 87.7818 289.016 87.6004 289.016ZM89.2027 288.928L88.9387 288.272L90.6187 286.392C90.7147 286.296 90.8134 286.186 90.9147 286.064C91.016 285.936 91.112 285.805 91.2027 285.672C91.2987 285.533 91.376 285.4 91.4347 285.272C91.4934 285.138 91.5227 285.016 91.5227 284.904C91.5227 284.76 91.4907 284.634 91.4267 284.528C91.368 284.421 91.2827 284.338 91.1707 284.28C91.0587 284.221 90.92 284.192 90.7547 284.192C90.6107 284.192 90.4694 284.234 90.3307 284.32C90.1974 284.4 90.072 284.517 89.9547 284.672C89.8427 284.821 89.7494 285 89.6747 285.208L88.8907 284.744C88.9867 284.434 89.1307 284.168 89.3227 283.944C89.52 283.714 89.7494 283.538 90.0107 283.416C90.2774 283.293 90.5654 283.232 90.8747 283.232C91.1947 283.232 91.48 283.298 91.7307 283.432C91.9814 283.565 92.1787 283.749 92.3227 283.984C92.472 284.218 92.5467 284.493 92.5467 284.808C92.5467 284.925 92.5334 285.048 92.5067 285.176C92.48 285.298 92.4374 285.429 92.3787 285.568C92.3254 285.701 92.2534 285.842 92.1627 285.992C92.072 286.136 91.9627 286.288 91.8347 286.448C91.712 286.608 91.5707 286.776 91.4107 286.952L90.1387 288.336L89.9787 287.968H92.7467V288.928H89.2027Z" fill="#80C343"/>
<path d="M43.4092 61.9277C41.7743 64.3642 40.2209 66.7465 38.7461 69.0768C25.494 90.4069 12.9043 114.549 14.6995 140.564C16.4828 166.832 35.2185 187.083 41.9344 211.67C42.7278 214.394 43.3979 217.106 43.9606 219.928C43.9606 219.928 43.9606 219.928 43.9606 219.928C43.4634 217.094 42.8545 214.364 42.1173 211.619C35.8715 186.79 17.3859 166.266 15.6966 140.488C13.9104 114.902 26.1066 90.7842 38.9078 69.1767C40.3306 66.8163 41.8301 64.4007 43.4092 61.9277Z" fill="#4A4A4A"/>
<path d="M43.283 61.9277C43.283 61.9277 43.283 61.9277 43.283 61.9277C42.7615 64.8445 42.749 67.8322 43.1146 70.7662C48.2515 97.3651 69.1586 117.258 75.5519 143.208C83.5618 169.371 69.1012 196.152 49.8406 213.92C47.7907 215.903 45.6069 217.905 43.283 219.928C43.283 219.928 43.283 219.928 43.283 219.928C45.6501 217.956 47.8775 215.999 49.9712 214.058C69.5914 196.741 84.6719 169.563 76.5195 142.956C69.9907 116.64 48.9042 97.0287 43.3029 70.7409C42.8801 67.8306 42.8275 64.8556 43.283 61.9277Z" fill="#4A4A4A"/>
<path d="M43.4748 61.9277C41.9223 64.3202 40.4621 66.6626 39.0902 68.9573C26.3455 90.1259 17.0572 114.999 21.5916 139.991C25.7966 164.764 40.0075 186.325 43.1831 211.151C43.575 213.901 43.8534 216.596 44.0263 219.398C43.92 216.592 43.7045 213.889 43.3714 211.127C40.7188 186.153 26.6994 164.269 22.5781 139.827C18.1011 115.17 26.9743 90.5068 39.2543 69.053C40.5732 66.7301 41.9786 64.3559 43.4748 61.9277Z" fill="#4A4A4A"/>
<path d="M42.8516 62.4609C42.3702 65.3052 42.1384 68.1207 42.1335 70.9792C42.4289 97.3136 59.9487 118.761 67.909 142.839C77.6872 167.157 67.9622 194.606 49.9241 212.762C48.0678 214.778 46.0871 216.807 43.9545 218.87C46.1329 216.855 48.1598 214.87 50.0625 212.892C68.5035 195.19 78.7998 167.142 68.8574 142.522C60.782 118.169 43.158 97.1411 42.3235 70.9775C42.2685 68.1297 42.4361 65.3156 42.8516 62.4609Z" fill="#4A4A4A"/>
<path d="M42.9061 62.9961C42.9061 62.9961 42.9061 62.9961 42.9061 62.9961C41.4935 65.4047 40.1893 67.7503 38.9683 70.074C27.3911 91.403 21.9838 116.909 28.7544 140.642C34.8426 164.075 48.1429 186.155 45.2338 210.859C44.9662 213.576 44.57 216.163 44.009 218.875C44.009 218.875 44.009 218.875 44.009 218.875C44.6351 216.177 45.0947 213.597 45.4227 210.879C48.8995 186.134 35.7323 163.568 29.7232 140.394C23.0347 116.903 28.0527 91.7568 39.1375 70.1605C40.3036 67.8121 41.5514 65.4378 42.9061 62.9961Z" fill="#4A4A4A"/>
<path d="M42.8958 62.9961C42.1927 65.7503 41.6841 68.385 41.3246 71.1814C37.7549 96.6055 51.5513 119.724 60.0924 142.692C70.1205 165.728 65.5405 193.309 49.3005 212.452C47.6204 214.629 45.9118 216.699 43.9987 218.875C45.9614 216.743 47.7197 214.713 49.4497 212.57C66.1523 193.839 71.1961 165.551 61.0323 142.351C52.4178 119.185 38.518 96.5798 41.5133 71.2034C41.8123 68.4081 42.2575 65.7661 42.8958 62.9961Z" fill="#4A4A4A"/>
<path d="M42.8451 63.5146C41.536 65.9622 40.3872 68.2642 39.2641 70.7099C28.5899 92.3703 28.0466 118.348 35.9832 141.08C43.3917 163.667 52.6235 187.305 46.611 211.111C46.0087 213.791 45.3425 216.229 44.4994 218.864C44.4994 218.864 44.4994 218.864 44.4994 218.864C45.4057 216.25 46.1339 213.826 46.7959 211.155C53.3853 187.419 44.3164 163.229 36.9388 140.785C29.0684 118.152 29.2913 92.6859 39.4376 70.7872C40.5043 68.3209 41.5952 65.9929 42.8451 63.5146Z" fill="#4A4A4A"/>
<path d="M42.3264 64.0439C41.3348 66.645 40.5466 69.0823 39.8517 71.7596C33.0359 95.7934 43.96 119.865 52.3553 142.054C61.6015 164.284 62.0377 190.722 48.8498 211.483C47.4824 213.84 46.1148 216.008 44.5322 218.333C44.5322 218.333 44.5322 218.333 44.5322 218.333C46.1695 216.046 47.5915 213.911 49.0131 211.58C62.7243 191.129 62.6268 164.013 53.2951 141.713C44.8621 119.38 33.8057 95.8844 40.0362 71.8051C40.671 69.1208 41.3974 66.668 42.3264 64.0439Z" fill="#4A4A4A"/>
<path d="M42.9244 63.5146C41.5375 65.9292 40.385 68.2024 39.2845 70.7441C28.8495 93.4349 36.3509 119.072 44.1374 141.454C52.0111 163.865 58.5742 189.301 47.7522 211.687C46.6056 214.217 45.4409 216.453 44.0272 218.864C45.498 216.487 46.7204 214.278 47.9245 211.767C59.3189 189.551 52.9796 163.505 45.086 141.137C37.3067 118.693 29.6029 93.6432 39.4598 70.8175C40.5019 68.2598 41.5957 65.9617 42.9244 63.5146Z" fill="#4A4A4A"/>
<path d="M44.0544 218.928C44.0544 218.928 44.0544 218.928 44.0544 218.928C42.8487 220.755 41.7117 222.554 40.6407 224.326C30.7729 240.581 23.7669 259.562 25.8643 278.917C27.4373 298.454 39.4497 314.629 44.975 332.813C45.5124 334.857 45.91 336.953 46.0938 339.063C45.9766 336.948 45.6407 334.834 45.1594 332.767C40.0929 314.294 28.3783 298.027 26.8591 278.815C24.7934 259.767 31.4068 240.949 40.8047 224.422C41.8227 222.622 42.9049 220.791 44.0544 218.928Z" fill="#4A4A4A"/>
<path d="M44.0664 218.928C43.7864 221.126 44.0612 223.411 44.6069 225.553C51.1309 244.601 66.1933 259.818 69.5873 279.782C73.7679 299.696 63.8864 319.45 50.6573 334.142C49.2324 335.763 47.7166 337.404 46.1059 339.063C46.1059 339.063 46.1059 339.063 46.1059 339.063C47.7638 337.451 49.3266 335.853 50.7983 334.269C64.4251 319.966 74.8384 299.936 70.5703 279.599C67.0711 259.252 51.7323 244.195 44.7904 225.504C44.1914 223.393 43.8532 221.134 44.0664 218.928Z" fill="#4A4A4A"/>
<path d="M43.4007 219.699C42.3663 221.547 41.4228 223.335 40.5178 225.165C32.1292 241.684 28.7824 260.959 32.4723 279.279C35.6361 297.649 45.137 314.312 46.2312 332.908C46.3233 334.957 46.2931 337.006 46.1201 339.065C46.3595 337.013 46.4535 334.961 46.4211 332.902C45.8554 314.156 36.5653 297.248 33.4557 279.098C29.8169 260.971 32.8054 241.998 40.6894 225.247C41.5388 223.393 42.425 221.579 43.4007 219.699Z" fill="#4A4A4A"/>
<path d="M44.0508 219.699C44.0177 221.834 44.1037 223.937 44.2989 226.054C46.063 245.289 56.6612 262.099 61.3775 280.429C66.8386 298.818 61.3795 318.815 49.9383 333.997C48.7165 335.704 47.4675 337.349 46.0902 339.065C47.5189 337.392 48.8188 335.784 50.0912 334.11C61.9846 319.29 67.9115 298.829 62.3463 280.181C57.5483 261.601 46.7788 245.114 44.4878 226.033C44.2336 223.93 44.0844 221.834 44.0508 219.699Z" fill="#4A4A4A"/>
<path d="M44.0599 219.699C43.1132 221.582 42.2979 223.334 41.4868 225.26C33.9229 242.145 34.5514 261.66 39.4714 279.239C44.1175 296.858 50.0807 314.689 47.7201 333.025C47.4817 335.076 47.1789 337.024 46.779 339.065C47.2441 337.038 47.6099 335.098 47.9085 333.049C50.8289 314.726 45.0665 296.511 40.4404 278.992C35.5613 261.47 34.6373 242.41 41.663 225.331C42.4167 223.387 43.1732 221.611 44.0599 219.699Z" fill="#4A4A4A"/>
<path d="M44.0554 219.699C43.4069 221.655 42.9372 223.639 42.6264 225.667C40.1671 244.361 49.1923 261.758 53.9369 279.293C59.2751 296.661 60.0317 316.486 50.1304 332.371C49.0674 334.176 48.0096 335.799 46.7747 337.525C48.0632 335.838 49.1753 334.249 50.2928 332.47C60.724 316.847 60.2999 296.464 54.8989 279.02C50.1097 261.342 40.914 244.296 42.8146 225.693C43.0646 223.667 43.4705 221.675 44.0554 219.699Z" fill="#4A4A4A"/>
<path d="M43.3688 220.466C42.7488 222.459 42.2368 224.297 41.7536 226.306C37.0214 244.031 40.8734 262.732 46.7589 279.705C52.7547 296.668 55.2264 315.414 48.8811 332.616C48.2225 334.573 47.56 336.351 46.7682 338.291C46.7682 338.291 46.7682 338.291 46.7682 338.291C47.6213 336.377 48.3436 334.62 49.0603 332.679C55.9579 315.662 53.7409 296.367 47.7122 279.404C41.8356 262.393 37.7687 244.178 41.939 226.348C42.3627 224.33 42.8128 222.478 43.3688 220.466Z" fill="#4A4A4A"/>
<circle cx="41.5" cy="61.4277" r="40.75" stroke="#4A4A4A" stroke-width="1.5"/>
<path d="M35.2299 36.9277V32.4077L35.6139 32.4477L33.7099 34.7757L33.6219 34.6317H37.1819V35.5357H33.0619L32.6299 34.7037L35.4139 31.3117H36.2299V36.9277H35.2299ZM39.612 37.0077C39.196 37.0077 38.8333 36.9171 38.524 36.7357C38.2147 36.5491 37.9293 36.2344 37.668 35.7917L38.452 35.2957C38.5747 35.4931 38.7 35.6531 38.828 35.7757C38.9613 35.8931 39.0947 35.9811 39.228 36.0397C39.3667 36.0931 39.5133 36.1197 39.668 36.1197C39.844 36.1197 40.004 36.0771 40.148 35.9917C40.2973 35.9064 40.4147 35.7891 40.5 35.6397C40.5907 35.4904 40.636 35.3197 40.636 35.1277C40.636 34.9357 40.5987 34.7731 40.524 34.6397C40.4547 34.5064 40.3507 34.4051 40.212 34.3357C40.0787 34.2611 39.916 34.2237 39.724 34.2237C39.6387 34.2237 39.548 34.2344 39.452 34.2557C39.356 34.2717 39.2547 34.2984 39.148 34.3357C39.0413 34.3677 38.924 34.4077 38.796 34.4557L38.54 33.7757L40.132 32.0157L40.372 32.2477L38.012 32.2317V31.3117H41.3L41.492 31.6957L39.652 33.7037L39.412 33.4397C39.4547 33.4184 39.524 33.3997 39.62 33.3837C39.7213 33.3624 39.8093 33.3517 39.884 33.3517C40.1187 33.3517 40.3427 33.3971 40.556 33.4877C40.7693 33.5731 40.9533 33.6957 41.108 33.8557C41.268 34.0157 41.3933 34.2024 41.484 34.4157C41.5747 34.6237 41.62 34.8504 41.62 35.0957C41.62 35.4637 41.5293 35.7917 41.348 36.0797C41.172 36.3624 40.932 36.5891 40.628 36.7597C40.324 36.9251 39.9853 37.0077 39.612 37.0077ZM44.0343 36.9837C43.6449 36.9837 43.2929 36.9011 42.9783 36.7357C42.6636 36.5651 42.4023 36.3197 42.1943 35.9997L42.7703 35.3757C43.0049 35.6371 43.2156 35.8184 43.4023 35.9197C43.5889 36.0157 43.7943 36.0637 44.0182 36.0637C44.2209 36.0637 44.4023 36.0211 44.5623 35.9357C44.7223 35.8451 44.8503 35.7251 44.9463 35.5757C45.0423 35.4211 45.0903 35.2531 45.0903 35.0717C45.0903 34.8744 45.0449 34.7011 44.9543 34.5517C44.8636 34.3971 44.7409 34.2744 44.5863 34.1837C44.4316 34.0931 44.2556 34.0477 44.0583 34.0477C43.9516 34.0477 43.8503 34.0557 43.7543 34.0717C43.6583 34.0877 43.5463 34.1197 43.4183 34.1677C43.2956 34.2157 43.1383 34.2904 42.9463 34.3917L42.4503 33.7197L42.7783 31.3117H45.8743V32.2317H43.3623L43.5943 31.9757L43.3303 33.7517L43.0343 33.5437C43.1036 33.4797 43.2049 33.4184 43.3383 33.3597C43.4769 33.3011 43.6263 33.2531 43.7863 33.2157C43.9463 33.1784 44.1036 33.1597 44.2582 33.1597C44.6049 33.1597 44.9143 33.2397 45.1863 33.3997C45.4583 33.5597 45.6743 33.7811 45.8343 34.0637C45.9943 34.3411 46.0743 34.6611 46.0743 35.0237C46.0743 35.3917 45.9836 35.7251 45.8023 36.0237C45.6263 36.3171 45.3836 36.5517 45.0743 36.7277C44.7649 36.8984 44.4183 36.9837 44.0343 36.9837ZM49.0513 37.0077C48.5979 37.0077 48.2086 36.8931 47.8833 36.6637C47.5633 36.4291 47.3153 36.0984 47.1393 35.6717C46.9686 35.2397 46.8833 34.7251 46.8833 34.1277C46.8833 33.5304 46.9686 33.0184 47.1393 32.5917C47.3153 32.1597 47.5633 31.8291 47.8833 31.5997C48.2086 31.3651 48.5979 31.2477 49.0513 31.2477C49.5046 31.2477 49.8939 31.3651 50.2193 31.5997C50.5446 31.8291 50.7926 32.1597 50.9633 32.5917C51.1393 33.0184 51.2273 33.5304 51.2273 34.1277C51.2273 34.7251 51.1393 35.2397 50.9633 35.6717C50.7926 36.0984 50.5446 36.4291 50.2193 36.6637C49.8939 36.8931 49.5046 37.0077 49.0513 37.0077ZM49.0513 36.0957C49.4246 36.0957 49.7126 35.9251 49.9153 35.5837C50.1233 35.2371 50.2273 34.7517 50.2273 34.1277C50.2273 33.4984 50.1233 33.0104 49.9153 32.6637C49.7126 32.3171 49.4246 32.1437 49.0513 32.1437C48.6779 32.1437 48.3873 32.3171 48.1793 32.6637C47.9766 33.0104 47.8753 33.4984 47.8753 34.1277C47.8753 34.7517 47.9766 35.2371 48.1793 35.5837C48.3873 35.9251 48.6779 36.0957 49.0513 36.0957Z" fill="#80C343"/>
<path d="M23.9416 8.92773V1.43973H21.5416V0.527734H27.3736V1.43973H24.8776V8.92773H23.9416ZM29.6214 9.04773C29.1414 9.04773 28.7334 8.95173 28.3974 8.75973C28.0694 8.55973 27.8174 8.27173 27.6414 7.89573C27.4734 7.51973 27.3894 7.05173 27.3894 6.49173V2.66373H28.3014V6.31173C28.3014 6.73573 28.3574 7.09173 28.4694 7.37973C28.5894 7.65973 28.7654 7.87173 28.9974 8.01573C29.2374 8.15973 29.5294 8.23173 29.8734 8.23173C30.1374 8.23173 30.3814 8.18773 30.6054 8.09973C30.8294 8.00373 31.0254 7.87573 31.1934 7.71573C31.3614 7.55573 31.4934 7.36773 31.5894 7.15173C31.6854 6.93573 31.7334 6.70773 31.7334 6.46773V2.66373H32.6334V8.92773H31.7454L31.7094 7.60773L31.8534 7.53573C31.7574 7.81573 31.5974 8.07173 31.3734 8.30373C31.1494 8.52773 30.8814 8.70773 30.5694 8.84373C30.2654 8.97973 29.9494 9.04773 29.6214 9.04773ZM34.3858 8.92773V2.66373H35.2738L35.3098 3.97173L35.1658 4.03173C35.2458 3.75973 35.4018 3.51173 35.6338 3.28773C35.8658 3.06373 36.1418 2.88373 36.4618 2.74773C36.7898 2.60373 37.1258 2.53173 37.4698 2.53173C37.9338 2.53173 38.3218 2.62373 38.6338 2.80773C38.9458 2.99173 39.1818 3.27573 39.3418 3.65973C39.5018 4.04373 39.5818 4.53173 39.5818 5.12373V8.92773H38.6698V5.17173C38.6698 4.75573 38.6138 4.41573 38.5018 4.15173C38.3978 3.87973 38.2338 3.67973 38.0098 3.55173C37.7858 3.42373 37.5098 3.36373 37.1818 3.37173C36.9098 3.37173 36.6578 3.41973 36.4258 3.51573C36.1938 3.60373 35.9938 3.72773 35.8258 3.88773C35.6578 4.04773 35.5258 4.23173 35.4298 4.43973C35.3338 4.64773 35.2858 4.87173 35.2858 5.11173V8.92773H34.8418C34.7858 8.92773 34.7218 8.92773 34.6498 8.92773C34.5778 8.92773 34.4898 8.92773 34.3858 8.92773ZM41.5398 8.92773V2.66373H42.4398V8.92773H41.5398ZM41.9838 1.30773C41.7598 1.30773 41.5878 1.25173 41.4678 1.13973C41.3558 1.01973 41.2998 0.859734 41.2998 0.659734C41.2998 0.459734 41.3598 0.299734 41.4798 0.179734C41.5998 0.0597341 41.7678 -0.000265837 41.9838 -0.000265837C42.1998 -0.000265837 42.3678 0.0597341 42.4878 0.179734C42.6078 0.291734 42.6678 0.451734 42.6678 0.659734C42.6678 0.851734 42.6078 1.00773 42.4878 1.12773C42.3678 1.24773 42.1998 1.30773 41.9838 1.30773ZM46.4573 9.04773C45.9213 9.04773 45.4413 8.94773 45.0173 8.74773C44.5933 8.54773 44.2573 8.28373 44.0093 7.95573L44.6453 7.40373C44.8773 7.68373 45.1493 7.89573 45.4613 8.03973C45.7813 8.18373 46.1373 8.25573 46.5293 8.25573C46.7293 8.25573 46.9093 8.23573 47.0693 8.19573C47.2293 8.14773 47.3693 8.07973 47.4893 7.99173C47.6093 7.90373 47.7013 7.79973 47.7653 7.67973C47.8293 7.55973 47.8613 7.42773 47.8613 7.28373C47.8613 7.01973 47.7453 6.79973 47.5133 6.62373C47.4093 6.55173 47.2613 6.47973 47.0693 6.40773C46.8773 6.32773 46.6453 6.25173 46.3733 6.17973C45.9253 6.05173 45.5533 5.92373 45.2573 5.79573C44.9613 5.65973 44.7293 5.50373 44.5613 5.32773C44.4413 5.18373 44.3493 5.02773 44.2853 4.85973C44.2293 4.69173 44.2013 4.50773 44.2013 4.30773C44.2013 4.05173 44.2533 3.81573 44.3573 3.59973C44.4693 3.38373 44.6213 3.19573 44.8133 3.03573C45.0133 2.86773 45.2453 2.74373 45.5093 2.66373C45.7813 2.57573 46.0733 2.53173 46.3853 2.53173C46.6813 2.53173 46.9733 2.57173 47.2613 2.65173C47.5493 2.73173 47.8173 2.84773 48.0653 2.99973C48.3133 3.15173 48.5253 3.33173 48.7013 3.53973L48.1493 4.13973C47.9973 3.97973 47.8293 3.83573 47.6453 3.70773C47.4613 3.57973 47.2653 3.47973 47.0573 3.40773C46.8573 3.33573 46.6493 3.29973 46.4333 3.29973C46.2413 3.29973 46.0613 3.32373 45.8933 3.37173C45.7333 3.41973 45.5933 3.48773 45.4733 3.57573C45.3613 3.65573 45.2733 3.75573 45.2093 3.87573C45.1533 3.99573 45.1253 4.12773 45.1253 4.27173C45.1253 4.39173 45.1493 4.49973 45.1973 4.59573C45.2453 4.69173 45.3133 4.77573 45.4013 4.84773C45.5133 4.93573 45.6693 5.01973 45.8693 5.09973C46.0773 5.17173 46.3333 5.24773 46.6373 5.32773C46.9893 5.42373 47.2853 5.52373 47.5253 5.62773C47.7733 5.72373 47.9773 5.83973 48.1373 5.97573C48.3533 6.13573 48.5053 6.31973 48.5933 6.52773C48.6893 6.73573 48.7373 6.97173 48.7373 7.23573C48.7373 7.58773 48.6373 7.89973 48.4373 8.17173C48.2453 8.44373 47.9773 8.65973 47.6333 8.81973C47.2893 8.97173 46.8973 9.04773 46.4573 9.04773ZM50.3875 8.92773V2.66373H51.2875V8.92773H50.3875ZM50.8315 1.30773C50.6075 1.30773 50.4355 1.25173 50.3155 1.13973C50.2035 1.01973 50.1475 0.859734 50.1475 0.659734C50.1475 0.459734 50.2075 0.299734 50.3275 0.179734C50.4475 0.0597341 50.6155 -0.000265837 50.8315 -0.000265837C51.0475 -0.000265837 51.2155 0.0597341 51.3355 0.179734C51.4555 0.291734 51.5155 0.451734 51.5155 0.659734C51.5155 0.851734 51.4555 1.00773 51.3355 1.12773C51.2155 1.24773 51.0475 1.30773 50.8315 1.30773ZM55.701 9.04773C55.157 9.04773 54.665 8.90773 54.225 8.62773C53.785 8.33973 53.437 7.95173 53.181 7.46373C52.925 6.96773 52.797 6.40773 52.797 5.78373C52.797 5.15173 52.929 4.59173 53.193 4.10373C53.457 3.61573 53.809 3.23173 54.249 2.95173C54.697 2.67173 55.197 2.53173 55.749 2.53173C56.077 2.53173 56.381 2.57973 56.661 2.67573C56.941 2.77173 57.189 2.90773 57.405 3.08373C57.629 3.25173 57.813 3.45173 57.957 3.68373C58.109 3.90773 58.213 4.15173 58.269 4.41573L58.005 4.28373L58.041 2.66373H58.941V8.92773H58.029V7.39173L58.269 7.23573C58.213 7.47573 58.105 7.70773 57.945 7.93173C57.785 8.14773 57.589 8.33973 57.357 8.50773C57.133 8.67573 56.877 8.80773 56.589 8.90373C56.309 8.99973 56.013 9.04773 55.701 9.04773ZM55.905 8.18373C56.321 8.18373 56.693 8.08373 57.021 7.88373C57.349 7.67573 57.605 7.39173 57.789 7.03173C57.981 6.66373 58.077 6.24773 58.077 5.78373C58.077 5.31973 57.981 4.90773 57.789 4.54773C57.605 4.18773 57.349 3.90373 57.021 3.69573C56.693 3.48773 56.321 3.38373 55.905 3.38373C55.481 3.38373 55.105 3.48773 54.777 3.69573C54.457 3.90373 54.201 4.18773 54.009 4.54773C53.825 4.90773 53.733 5.31973 53.733 5.78373C53.733 6.23973 53.825 6.65173 54.009 7.01973C54.193 7.37973 54.449 7.66373 54.777 7.87173C55.105 8.07973 55.481 8.18373 55.905 8.18373Z" fill="#130091"/>
</svg>
